P2
# CREATOR: GIMP PNM Filter Version 1.1
100 20
255
255
255
255
255
255
255
255
255
255
255
255
255
255
255
255
255
255
255
255
255
255
255
255
255
255
255
255
255
255
255
255
255
255
255
255
255
255
255
255
255
255
255
255
255
255
255
255
255
255
255
255
255
255
255
255
255
255
255
255
255
255
255
255
255
255
255
255
255
255
255
255
255
255
255
255
255
255
255
255
255
255
255
255
255
255
255
255
255
255
255
255
255
255
255
255
255
255
255
255
255
255
255
255
255
255
255
255
255
255
255
255
255
255
255
255
255
255
255
255
255
255
255
255
255
255
255
255
255
255
255
255
255
255
255
255
255
255
255
255
255
255
255
255
255
255
255
255
255
255
255
255
255
255
255
255
255
255
255
255
255
255
255
255
255
255
255
255
255
255
255
255
255
255
255
255
255
255
255
255
255
255
255
255
255
255
255
255
255
255
255
255
255
255
255
255
255
255
255
255
255
255
255
255
255
255
255
255
255
255
255
255
255
255
255
255
255
255
255
255
255
255
255
255
255
255
255
255
255
255
255
255
255
255
255
255
255
255
255
255
255
255
255
255
255
255
255
255
255
255
255
255
255
255
255
255
255
255
255
255
255
255
255
255
255
255
255
255
255
255
255
255
255
255
255
255
255
255
255
255
255
255
255
255
255
255
255
255
255
255
255
255
255
255
255
255
255
255
255
255
255
255
255
255
255
255
255
255
255
255
255
255
255
255
255
255
255
255
255
255
255
255
255
255
255
255
255
255
255
255
255
255
255
255
255
255
255
255
255
159
159
159
159
255
255
255
255
255
255
255
255
255
255
255
255
255
255
255
255
255
255
255
255
255
255
255
255
255
255
255
255
255
255
255
255
255
255
255
255
255
255
255
255
255
255
255
255
255
255
255
255
255
255
255
255
255
255
255
255
255
255
255
255
255
255
255
255
255
255
255
255
255
255
255
255
255
255
255
255
255
255
255
255
255
255
255
255
255
255
255
255
255
255
255
255
255
255
255
255
159
255
255
159
255
255
255
255
255
255
255
255
255
255
255
255
255
255
255
255
255
255
255
255
255
255
255
255
255
255
255
255
255
255
255
255
255
255
255
255
159
159
159
159
255
255
255
159
159
159
159
159
159
255
255
255
255
255
255
255
255
255
255
255
255
255
255
255
255
255
255
255
255
255
255
255
255
255
255
255
255
255
255
255
255
255
255
255
255
255
255
255
255
255
255
255
255
255
255
255
159
255
255
159
159
255
255
255
255
255
255
255
255
255
255
255
255
255
159
159
159
159
255
255
255
255
255
255
255
255
255
255
255
255
255
255
255
255
159
159
159
255
255
159
159
159
159
159
255
255
255
255
159
159
255
255
255
255
255
255
255
255
255
255
255
255
255
255
255
255
255
255
255
255
255
255
255
255
255
255
255
255
255
159
159
159
255
255
255
255
255
255
255
255
255
255
255
255
255
159
159
255
255
255
159
255
255
255
255
255
255
255
255
255
255
255
255
159
255
255
255
159
159
255
255
255
255
255
255
255
255
255
255
255
255
255
255
159
159
255
255
255
255
255
255
255
255
255
255
255
255
255
255
159
255
255
255
255
255
255
255
255
255
255
255
255
255
255
255
255
255
255
255
255
255
255
255
255
255
255
255
255
159
159
255
159
159
255
255
255
255
255
255
255
255
255
255
255
159
159
255
255
255
255
159
255
255
255
255
255
255
255
255
255
255
255
159
159
255
255
255
255
159
159
255
255
255
255
255
255
255
255
255
255
255
255
159
159
255
255
255
255
255
255
255
255
255
255
255
255
255
255
255
159
159
255
255
255
255
255
255
255
255
255
255
255
255
255
255
255
255
255
159
159
159
255
255
255
255
255
255
255
159
255
255
255
159
255
255
255
255
255
255
255
255
255
255
255
159
159
255
255
255
255
159
255
255
255
255
255
255
255
255
255
255
159
159
255
255
255
255
255
255
159
159
159
255
255
255
255
255
255
255
255
255
255
159
255
255
255
255
255
255
255
255
255
255
255
255
255
255
255
255
255
159
255
255
255
255
255
255
255
255
255
255
255
255
255
255
255
255
255
159
255
159
255
255
255
255
255
255
159
159
255
255
255
159
159
255
255
255
255
255
255
255
255
255
255
255
159
255
255
255
255
159
255
255
255
255
255
255
255
255
255
159
159
255
255
255
255
255
255
255
255
255
159
255
255
255
255
255
255
255
255
255
255
159
255
255
255
255
255
255
255
255
255
255
255
255
255
255
255
255
255
159
159
255
255
255
255
255
255
255
255
255
255
255
255
255
255
255
255
159
159
255
255
255
255
255
255
255
159
255
255
255
255
255
159
255
255
255
255
255
255
255
255
255
255
255
159
255
255
255
255
255
255
255
255
255
255
255
255
255
255
159
255
255
255
255
255
255
255
255
255
255
159
255
255
255
255
255
255
255
255
255
159
159
255
255
255
255
255
255
255
255
255
255
255
255
255
255
255
255
255
255
159
255
255
255
255
255
255
255
255
255
255
255
255
255
255
255
255
255
159
255
255
255
255
255
255
255
159
255
255
255
255
255
159
255
255
255
255
255
255
255
255
255
255
255
159
255
255
255
255
255
255
255
255
255
255
255
255
255
255
159
255
255
255
255
255
255
255
255
255
0
159
255
255
255
255
255
255
255
255
255
159
255
255
255
255
255
255
255
255
255
255
255
255
255
255
255
255
255
255
255
159
255
255
255
255
255
255
255
255
255
255
255
255
255
255
255
255
255
159
255
255
255
255
255
255
255
159
255
255
255
255
255
159
255
255
255
255
255
255
255
255
255
255
255
159
255
255
255
255
255
255
255
255
255
255
255
255
255
255
159
255
255
255
255
255
255
255
255
255
0
159
255
255
255
255
255
255
255
255
255
159
255
255
255
255
255
255
255
255
255
255
255
255
255
255
255
255
255
255
255
159
255
255
255
255
255
255
255
255
255
255
255
255
255
255
255
255
255
159
159
255
255
255
255
255
255
159
255
255
255
255
255
159
255
255
255
255
255
255
255
255
255
255
255
159
255
255
255
255
159
255
255
255
255
255
255
255
255
255
159
255
255
255
255
255
255
255
255
255
0
159
255
255
255
255
255
255
255
255
255
159
255
255
255
255
255
255
255
255
255
255
255
255
255
255
255
255
255
255
255
159
255
255
255
255
255
255
255
255
255
255
255
255
255
255
255
255
255
255
159
255
255
255
255
255
255
159
255
255
255
255
255
159
255
255
255
255
255
255
255
255
255
255
255
159
255
255
255
255
159
255
255
255
255
255
255
255
255
255
255
255
255
255
255
255
255
255
255
255
0
159
255
255
255
255
255
255
255
255
255
159
255
255
255
255
255
255
255
255
255
255
255
255
255
255
255
255
255
255
159
255
255
255
255
255
255
255
255
255
255
255
255
255
255
255
255
255
255
255
159
255
255
255
255
255
255
159
255
255
255
255
255
159
255
255
255
255
255
255
255
255
255
255
255
159
255
255
255
255
159
255
255
255
255
255
255
255
255
255
255
255
255
255
255
255
255
255
255
255
0
159
255
255
255
255
255
255
255
255
255
159
255
255
255
255
255
255
255
255
255
255
255
255
255
255
255
255
255
159
159
255
255
255
255
255
255
255
255
255
255
255
255
255
255
255
255
255
255
255
159
255
255
255
255
255
255
159
255
255
255
255
255
159
255
255
255
255
255
255
255
255
255
255
255
159
159
255
255
255
159
159
255
255
255
255
255
255
255
255
255
255
255
255
255
255
255
255
255
255
0
159
255
255
255
255
255
255
255
255
255
159
255
255
255
255
255
255
255
255
255
255
255
255
255
255
255
255
255
159
255
255
255
255
255
255
255
255
255
255
255
255
255
255
255
255
255
255
255
255
159
255
255
255
255
255
159
159
255
255
255
255
255
159
255
255
255
255
255
255
255
255
255
255
255
255
159
255
255
255
255
159
255
255
255
255
255
255
255
255
159
255
255
255
255
255
255
255
255
255
0
159
255
255
255
255
255
255
255
255
255
159
159
255
255
255
255
255
255
255
255
255
255
255
255
255
255
255
159
159
255
255
255
255
255
255
255
255
255
255
255
255
255
255
255
255
255
255
255
255
159
255
255
255
255
255
255
159
255
255
255
255
255
159
255
255
255
255
255
255
255
255
255
255
255
255
159
255
255
255
255
159
255
255
255
255
255
255
255
255
159
255
255
255
255
255
255
255
255
255
0
159
255
255
255
255
255
255
255
255
255
255
255
159
159
255
255
255
255
255
255
255
255
255
255
159
159
159
255
255
255
255
255
255
255
255
255
255
255
255
255
255
255
255
255
255
255
255
255
255
159
255
255
255
255
255
255
159
255
255
255
255
255
159
255
255
255
255
255
255
255
255
255
255
255
255
159
255
255
255
255
159
159
255
255
255
255
255
255
255
159
255
255
255
255
255
255
255
255
255
255
159
255
255
255
255
255
255
255
255
255
255
255
255
159
159
255
255
255
255
255
255
255
255
255
159
255
255
255
255
255
255
255
255
255
255
255
255
